# File created by Blade
# Date/Time:  Wed Sep 24 20:21:23 2014
# Frame Rate: 120.000 fps
#------------------------------------------------------
:FULLY-SPECIFIED
:DEGREES
421
root -8.186073 32.741553 -6.550757 8.781154 14.952102 32.579625
Spine 23.833447 -14.224730 -35.246216
Head -36.260863 6.205665 16.924391
LeftShoulder 16.277398 -17.157618 16.241968
LeftArm 42.044827 -63.770959 -68.989115
LeftForeArm -45.866945 -0.000000 24.792127
LeftHand -14.592705 -0.000000 -32.227249
LeftHandThumb1 -26.253704 0.000000 33.147579
RightShoulder -14.743060 18.039287 -24.150600
RightArm -14.401668 -8.492387 58.146870
RightForeArm -26.229146 -0.000000 19.120942
RightHand -5.994089 -0.000000 4.512535
RightHandThumb1 -24.326973 -0.000000 -32.862282
LeftUpLeg -145.590135 13.557275 -37.021381
LeftLeg 59.531302 -0.000000 -0.000000
LeftFoot 40.772402 18.772557 -9.725148
LeftToeBase 2.063076 -0.000000 -0.000000
RightUpLeg -18.476358 -9.668768 -24.499355
RightLeg 40.583008 -0.000000 -0.000000
RightFoot -23.395454 -19.938678 -2.571748
RightToeBase 0.826144 -0.000000 -0.000000
422
root -8.163037 32.757701 -6.521310 8.789097 14.906304 32.723426
Spine 23.518379 -14.342620 -35.323200
Head -35.917890 6.325616 16.753384
LeftShoulder 16.123884 -17.391532 16.410928
LeftArm 42.778186 -64.474924 -69.482002
LeftForeArm -45.230731 -0.000000 25.186600
LeftHand -14.594440 -0.000000 -31.982547
LeftHandThumb1 -26.253704 0.000000 33.147579
RightShoulder -14.733987 18.058197 -24.210128
RightArm -14.437757 -8.206344 57.823503
RightForeArm -26.207593 -0.000000 18.947009
RightHand -5.981916 -0.000000 4.480854
RightHandThumb1 -24.326973 -0.000000 -32.862282
LeftUpLeg -145.896908 13.651993 -37.041146
LeftLeg 58.450672 -0.000000 -0.000000
LeftFoot 40.872193 18.791994 -9.675552
LeftToeBase 2.031735 -0.000000 -0.000000
RightUpLeg -18.399776 -9.704078 -24.694075
RightLeg 40.587822 -0.000000 -0.000000
RightFoot -23.412521 -19.808472 -2.450075
RightToeBase 0.795729 -0.000000 -0.000000
423
root -8.141241 32.771457 -6.491977 8.773132 14.871148 32.850665
Spine 23.225292 -14.463396 -35.399177
Head -35.541265 6.543849 16.595062
LeftShoulder 16.004818 -17.577909 16.654042
LeftArm 43.825506 -65.298290 -70.345711
LeftForeArm -44.614988 -0.000000 25.480862
LeftHand -14.416025 -0.000000 -31.914984
LeftHandThumb1 -26.253704 0.000000 33.147579
RightShoulder -14.701924 18.157458 -24.298370
RightArm -14.509113 -8.008083 57.547358
RightForeArm -26.082335 -0.000000 18.744094
RightHand -6.075143 -0.000000 4.521742
RightHandThumb1 -24.326973 -0.000000 -32.862282
LeftUpLeg -146.187257 13.742306 -37.073092
LeftLeg 57.408329 -0.000000 -0.000000
LeftFoot 40.757747 18.872081 -9.646399
LeftToeBase 2.592013 -0.000000 -0.000000
RightUpLeg -18.297099 -9.720294 -24.877339
RightLeg 40.605733 -0.000000 -0.000000
RightFoot -23.487864 -19.693891 -2.283663
RightToeBase 0.841794 -0.000000 -0.000000
424
root -8.112592 32.785447 -6.462913 8.778648 14.820186 32.999864
Spine 22.898053 -14.607684 -35.435408
Head -35.186413 6.704017 16.231385
LeftShoulder 15.875780 -17.800652 16.840469
LeftArm 45.849987 -66.403748 -72.345027
LeftForeArm -43.378848 -0.000000 25.887353
LeftHand -14.473529 -0.000000 -32.025401
LeftHandThumb1 -26.253704 0.000000 33.147579
RightShoulder -14.708494 18.175270 -24.461889
RightArm -14.437903 -7.757929 57.330047
RightForeArm -26.022363 -0.000000 18.441418
RightHand -6.113802 -0.000000 3.994148
RightHandThumb1 -24.326973 -0.000000 -32.862282
LeftUpLeg -146.496861 13.806617 -37.149696
LeftLeg 56.339275 -0.000000 -0.000000
LeftFoot 40.838409 18.939596 -9.520731
LeftToeBase 2.729241 -0.000000 -0.000000
RightUpLeg -18.226551 -9.810668 -25.091107
RightLeg 40.628709 -0.000000 -0.000000
RightFoot -23.627759 -19.400543 -2.039526
RightToeBase 1.046006 -0.000000 -0.000000
425
root -8.089046 32.799170 -6.431891 8.718679 14.737339 33.121984
Spine 22.641639 -14.703118 -35.515830
Head -34.841056 7.041965 16.032552
LeftShoulder 15.755173 -18.039149 17.074175
LeftArm 46.249603 -67.053261 -72.509228
LeftForeArm -43.001481 -0.000000 26.261487
LeftHand -14.516457 -0.000000 -31.663728
LeftHandThumb1 -26.253704 0.000000 33.147579
RightShoulder -14.635756 18.399027 -24.597780
RightArm -14.490318 -7.266481 57.023874
RightForeArm -25.239833 -0.000000 18.207241
RightHand -6.290710 -0.000000 4.738996
RightHandThumb1 -24.326973 -0.000000 -32.862282
LeftUpLeg -146.758294 13.961199 -37.192911
LeftLeg 55.229368 -0.000000 -0.000000
LeftFoot 41.057601 18.971369 -9.480040
LeftToeBase 1.914707 -0.000000 -0.000000
RightUpLeg -18.117057 -9.865320 -25.280032
RightLeg 40.640991 -0.000000 -0.000000
RightFoot -23.766217 -19.063890 -1.795772
RightToeBase 1.236860 -0.000000 -0.000000
